<?xml version="1.0" standalone="no"?>
<!DOCTYPE svg PUBLIC "-//W3C//DTD SVG 1.1//EN" "http://www.w3.org/Graphics/SVG/1.1/DTD/svg11.dtd" >
<svg xmlns="http://www.w3.org/2000/svg" xmlns:xlink="http://www.w3.org/1999/xlink" version="1.1">
<metadata></metadata>
<defs>
<font id="sharp_sans_no1bold" horiz-adv-x="423" >
<font-face units-per-em="2048" ascent="1536" descent="-512" />
<missing-glyph horiz-adv-x="501" />
<glyph horiz-adv-x="0" />
<glyph horiz-adv-x="682" />
<glyph unicode=" "  horiz-adv-x="501" />
<glyph unicode="&#x09;" horiz-adv-x="501" />
<glyph unicode="&#xa0;" horiz-adv-x="501" />
<glyph unicode="!" d="M72 0v281h280v-281h-280zM72 1255v240h280v-240q0 -204 -17.5 -444t-45.5 -428h-154q-28 188 -45.5 428t-17.5 444z" />
<glyph unicode="&#x22;" horiz-adv-x="663" d="M72 1323v172h219v-172q0 -46 -27 -151.5t-45 -147.5h-78q-18 43 -43.5 148.5t-25.5 150.5zM373 1323v172h219v-172q0 -46 -27 -151.5t-45 -147.5h-78q-18 43 -43.5 148.5t-25.5 150.5z" />
<glyph unicode="#" horiz-adv-x="1638" d="M51 313v273h299v344h-299v272h299v293h285v-293h352v293h285v-293h315v-272h-315v-344h315v-273h-315v-313h-285v313h-352v-313h-285v313h-299zM635 586h352v344h-352v-344z" />
<glyph unicode="$" horiz-adv-x="1204" d="M25 248l260 205q67 -116 194 -170v383q-64 19 -115.5 40.5t-106.5 57.5t-92 78.5t-61 105t-24 137.5q0 154 109 271t282 149v215h285v-221q199 -43 354 -201l-236 -178q-50 71 -126 107v-346q65 -21 117.5 -44t109 -61t94.5 -82t63 -108t25 -140q0 -105 -46 -199 t-138.5 -163t-216.5 -92v-238h-285v240q-269 49 -446 254zM365 1096q0 -50 28.5 -80.5t85.5 -52.5v278q-54 -20 -84 -58t-30 -87zM748 274q56 24 88 72t32 103q0 48 -31 81t-89 58v-314z" />
<glyph unicode="%" horiz-adv-x="1685" d="M20 0l1285 1495h360l-1284 -1495h-361zM41 1149q0 152 107.5 259.5t259.5 107.5t259 -107.5t107 -259.5t-107 -259.5t-259 -107.5t-259.5 107.5t-107.5 259.5zM279 1149q0 -53 38.5 -91t90.5 -38t90.5 38t38.5 91t-38.5 91t-90.5 38t-90.5 -38t-38.5 -91zM911 344 q0 152 107.5 259.5t259.5 107.5t259.5 -107.5t107.5 -259.5t-107.5 -259.5t-259.5 -107.5t-259.5 107.5t-107.5 259.5zM1149 344q0 -52 38.5 -90.5t90.5 -38.5t90.5 38.5t38.5 90.5t-38.5 90.5t-90.5 38.5t-90.5 -38.5t-38.5 -90.5z" />
<glyph unicode="&#x26;" horiz-adv-x="1531" d="M41 465q0 135 69.5 241.5t188.5 176.5q-70 115 -70 245q0 165 122.5 276.5t307.5 111.5q179 0 287.5 -78t153.5 -205l-279 -98q-16 58 -53.5 92.5t-97.5 34.5q-62 0 -102 -38t-40 -96q0 -79 39.5 -136t180.5 -200l9.5 -9.5t9 -8.5t9.5 -10l277 -279q87 125 118 269h-251 v270h534v-131q0 -140 -59.5 -295.5t-163.5 -288.5l305 -309h-389l-117 115q-192 -138 -399 -138q-126 0 -228 29t-168.5 76.5t-111 112t-63.5 131.5t-19 139zM324 467q0 -101 81 -170.5t224 -69.5q115 0 221 64l-309 313l-82 82q-135 -81 -135 -219z" />
<glyph unicode="'" horiz-adv-x="362" d="M72 1323v172h219v-172q0 -46 -27 -151.5t-45 -147.5h-78q-18 43 -43.5 148.5t-25.5 150.5z" />
<glyph unicode="(" horiz-adv-x="790" d="M41 512q0 171 38 319.5t112 272t170.5 225t226.5 195.5l190 -205q-438 -293 -438 -807q0 -522 448 -799l-176 -233q-269 181 -420 438.5t-151 593.5z" />
<glyph unicode=")" horiz-adv-x="790" d="M2 -291q449 278 449 799q0 513 -439 807l191 205q130 -94 226.5 -195.5t170.5 -225t112 -272t38 -319.5q0 -336 -151.5 -593.5t-420.5 -438.5z" />
<glyph unicode="*" horiz-adv-x="825" d="M39 1061l221 74l-221 77l125 209l174 -155l-47 231h244l-48 -235l181 159l120 -213l-229 -75l229 -76l-124 -209l-175 156l46 -232h-244l47 232l-180 -156z" />
<glyph unicode="+" horiz-adv-x="901" d="M72 627v239h262v258h235v-258h260v-239h-260v-260h-235v260h-262z" />
<glyph unicode="," d="M43 -240l70 418h247l-143 -418h-174z" />
<glyph unicode="-" horiz-adv-x="901" d="M72 401v240h757v-240h-757z" />
<glyph unicode="." d="M72 0v281h280v-281h-280z" />
<glyph unicode="/" horiz-adv-x="1048" d="M20 0l709 1495h301l-708 -1495h-302z" />
<glyph unicode="0" horiz-adv-x="1204" d="M92 467v549q0 214 143 357t367 143q151 0 268.5 -67.5t179.5 -180.5t62 -250v-551q0 -222 -136.5 -354.5t-373.5 -132.5q-242 0 -376 133.5t-134 353.5zM377 481q0 -97 58.5 -158t164.5 -61t166.5 61.5t60.5 155.5v527q0 104 -59.5 166.5t-163.5 62.5 q-106 0 -166.5 -64.5t-60.5 -164.5v-525z" />
<glyph unicode="1" horiz-adv-x="1204" d="M92 0v272h373v801q-35 -53 -104 -88t-138 -35h-22v299h10q70 0 123.5 23t83 60.5t43.5 78.5t14 84h275v-1223h362v-272h-1020z" />
<glyph unicode="2" horiz-adv-x="1204" d="M59 1182q76 158 213.5 246t327.5 88q240 0 380 -119t140 -301q0 -50 -13.5 -96.5t-32.5 -83t-54 -75.5t-64 -65.5t-78.5 -61t-81 -54t-85.5 -52.5q-161 -98 -214 -142q-119 -96 -120 -194h735v-272h-1020v268q0 74 27 143t65 119.5t102 105t113.5 88t124.5 79.5 q155 97 196 128q110 87 111 167q0 74 -60.5 123t-168.5 49q-201 0 -297 -211z" />
<glyph unicode="3" horiz-adv-x="1204" d="M45 256l248 178q113 -194 321 -194q107 0 175.5 54.5t68.5 149.5q0 87 -55.5 137t-167.5 50h-197v262h193q112 0 165.5 57.5t53.5 143.5q0 70 -62 122t-170 52q-119 0 -185.5 -43t-115.5 -142l-247 123q162 310 546 310q222 0 366 -114.5t144 -295.5q0 -222 -174 -338 q191 -106 191 -332q0 -198 -143.5 -327t-387.5 -129q-194 0 -326.5 65t-240.5 211z" />
<glyph unicode="4" horiz-adv-x="1204" d="M82 303v260l571 932h312v-932h157v-260h-157v-303h-277v303h-606zM377 563h311v506z" />
<glyph unicode="5" horiz-adv-x="1204" d="M51 270l277 160q31 -87 103 -137.5t173 -50.5t176.5 75t75.5 187q0 116 -71 193t-189 77q-167 0 -264 -147l-254 131l106 737h895v-266h-671l-39 -264q114 69 270 69q83 0 157 -20.5t138 -64t110 -105.5t72.5 -149.5t26.5 -192.5q0 -224 -154 -373t-389 -149 q-203 0 -342 79t-207 211z" />
<glyph unicode="6" horiz-adv-x="1204" d="M61 498q0 205 115 376l383 621h336l-315 -489q40 12 82 12q99 0 187.5 -38.5t153 -106t102.5 -164.5t38 -209q0 -227 -153.5 -373.5t-385.5 -146.5q-154 0 -279 69t-194.5 187.5t-69.5 261.5zM340 504q0 -109 75.5 -187.5t182.5 -78.5q108 0 186 79t78 189 q0 107 -78.5 186.5t-185.5 79.5t-182.5 -79.5t-75.5 -188.5z" />
<glyph unicode="7" horiz-adv-x="1204" d="M92 1223v272h1020v-248l-588 -1247h-303l592 1223h-721z" />
<glyph unicode="8" horiz-adv-x="1204" d="M68 449q0 225 182 348q-131 112 -131 290q0 195 134.5 312t356.5 117q219 0 353.5 -117.5t134.5 -311.5q0 -178 -140 -292q179 -124 179 -346q0 -218 -143 -343.5t-394 -125.5q-252 0 -392 125.5t-140 343.5zM342 449q0 -96 66 -157t192 -61t195 61.5t69 156.5t-68 156 t-190 61q-123 0 -193.5 -62t-70.5 -155zM379 1087q0 -82 57.5 -133t167.5 -51q111 0 172.5 52t61.5 132q0 79 -61 133t-165 54q-107 0 -170 -54t-63 -133z" />
<glyph unicode="9" horiz-adv-x="1204" d="M61 995q0 227 153.5 374t385.5 147q154 0 279 -69t194.5 -188t69.5 -262q0 -205 -115 -376l-383 -621h-336l312 483q-36 -8 -78 -8q-132 0 -242 65.5t-175 185.5t-65 269zM342 989q0 -107 78.5 -186.5t185.5 -79.5t182.5 79.5t75.5 188.5t-75.5 187.5t-182.5 78.5 q-108 0 -186 -79t-78 -189z" />
<glyph unicode=":" d="M72 0v281h280v-281h-280zM72 743v281h280v-281h-280z" />
<glyph unicode=";" d="M43 -240l70 418h247l-143 -418h-174zM72 743v281h280v-281h-280z" />
<glyph unicode="&#x3c;" horiz-adv-x="901" d="M72 625v239l757 273v-248l-450 -146l450 -145v-248z" />
<glyph unicode="=" horiz-adv-x="901" d="M72 453v239h757v-239h-757zM72 795v239h757v-239h-757z" />
<glyph unicode="&#x3e;" horiz-adv-x="901" d="M72 350v248l450 145l-450 146v248l757 -273v-239z" />
<glyph unicode="?" horiz-adv-x="1054" d="M47 1182q38 154 158 244t311 90q210 0 342.5 -119t132.5 -312q0 -79 -20.5 -140t-53.5 -100t-73 -72t-79.5 -65.5t-72.5 -70.5t-53.5 -96t-20.5 -133v-23h-251v23q0 101 18.5 181t48 130t65 89t71.5 68.5t65.5 58t48 67.5t18.5 88q0 78 -52 128t-138 50q-77 0 -130 -48.5 t-71 -125.5zM352 0v281h281v-281h-281z" />
<glyph unicode="@" horiz-adv-x="1609" d="M41 512q0 209 102 385.5t278 279.5t384 103q170 0 316 -59t242.5 -156.5t151 -221t54.5 -253.5q0 -180 -97.5 -306t-254.5 -126q-165 0 -248 112q-83 -110 -256 -110q-62 0 -121.5 24.5t-106.5 69.5t-72 116.5t-16 157.5q10 90 48.5 163t92 116.5t112 66.5t114.5 23 q127 0 197 -76l8 64h223l-39 -371q-16 -135 82 -135q48 0 79.5 59t31.5 152q0 87 -38.5 171t-106 151t-171.5 108t-225 41q-149 0 -274 -73.5t-197 -200.5t-72 -277q0 -149 72 -275.5t197 -200t274 -73.5q119 0 222.5 47.5t180.5 132.5l170 -139q-106 -121 -255 -189.5 t-318 -68.5q-209 0 -384.5 102.5t-277.5 279t-102 386.5zM623 535q-9 -69 32 -116.5t109 -47.5t117 47.5t55 116.5q8 67 -31 114t-106 47q-69 0 -121 -46.5t-55 -114.5z" />
<glyph unicode="A" horiz-adv-x="1404" d="M29 0l530 1495h287l530 -1495h-297l-90 260h-573l-90 -260h-297zM510 532h385l-193 558z" />
<glyph unicode="B" horiz-adv-x="1167" d="M82 0v1495h467q250 0 387 -108.5t137 -311.5q0 -193 -162 -289q215 -99 215 -342q0 -219 -142 -331.5t-396 -112.5h-506zM367 262h221q124 0 188 49t64 140q0 95 -58 139.5t-209 44.5h-206v-373zM367 901h182q237 0 237 174q0 83 -55 120.5t-180 37.5h-184v-332z" />
<glyph unicode="C" horiz-adv-x="1505" d="M41 748q0 164 59.5 307.5t162 244t244.5 158.5t302 58q207 0 381 -100.5t274 -270.5l-250 -160q-135 250 -405 250q-208 0 -346.5 -140t-138.5 -347q0 -133 62 -243.5t172.5 -175.5t244.5 -65q147 0 255.5 76t168.5 203l260 -137q-100 -195 -279.5 -310.5t-398.5 -115.5 q-170 0 -315 60t-243.5 164t-154 244.5t-55.5 299.5z" />
<glyph unicode="D" horiz-adv-x="1320" d="M82 0v1495h407q186 0 336.5 -57t249.5 -157.5t152 -237t53 -295.5q0 -211 -98.5 -381.5t-276.5 -268.5t-403 -98h-420zM367 264h102q238 0 382 137t144 347q0 221 -136 352t-402 131h-90v-967z" />
<glyph unicode="E" horiz-adv-x="1034" d="M82 0v1495h887v-272h-602v-336h602v-273h-602v-342h602v-272h-887z" />
<glyph unicode="F" horiz-adv-x="999" d="M82 0v1495h846v-272h-561v-336h561v-273h-561v-614h-285z" />
<glyph unicode="G" horiz-adv-x="1589" d="M41 748q0 211 98 386.5t273.5 278.5t392.5 103q226 0 403.5 -104t276.5 -279l-250 -152q-140 258 -428 258q-133 0 -244.5 -66.5t-175 -179.5t-63.5 -245q0 -208 140 -350t353 -142q160 0 272 84t152 229h-469v273h776v-115q0 -150 -52.5 -286t-146 -238t-232 -162.5 t-300.5 -60.5q-171 0 -317.5 62t-246 166.5t-156 244.5t-56.5 295z" />
<glyph unicode="H" horiz-adv-x="1296" d="M82 0v1495h285v-610h563v610h284v-1495h-284v612h-563v-612h-285z" />
<glyph unicode="I" horiz-adv-x="468" d="M92 0v1495h285v-1495h-285z" />
<glyph unicode="J" horiz-adv-x="1030" d="M37 324l282 90q14 -73 65 -120.5t122 -47.5q79 0 118.5 52.5t39.5 133.5v1063h284v-1036q0 -227 -114.5 -353t-323.5 -126q-182 0 -309 92.5t-164 251.5z" />
<glyph unicode="K" horiz-adv-x="1261" d="M82 0v1495h285v-602l483 602h346l-471 -582l512 -913h-324l-391 715l-155 -195v-520h-285z" />
<glyph unicode="L" horiz-adv-x="978" d="M82 0v1495h285v-1223h540v-272h-825z" />
<glyph unicode="M" horiz-adv-x="1628" d="M82 0v1495h283l448 -623l465 623h268v-1495h-284v1036l-451 -608l-444 602v-1030h-285z" />
<glyph unicode="N" horiz-adv-x="1406" d="M82 0v1495h324l634 -1006v1006h285v-1495h-303l-655 1038v-1038h-285z" />
<glyph unicode="O" horiz-adv-x="1611" d="M41 748q0 209 102 385.5t278 279.5t384 103q209 0 385.5 -103t278.5 -279.5t102 -385.5q0 -157 -60 -299.5t-162.5 -245t-244.5 -163t-299 -60.5q-209 0 -384.5 102.5t-277.5 279t-102 386.5zM324 748q0 -132 64 -244.5t174.5 -178t242.5 -65.5t243 65.5t175.5 178 t64.5 244.5t-64.5 244t-175.5 177.5t-243 65.5t-242.5 -65.5t-174.5 -177.5t-64 -244z" />
<glyph unicode="P" horiz-adv-x="1185" d="M82 0v1495h514q114 0 214.5 -42t171.5 -113.5t112 -170t41 -208.5t-41 -208.5t-112.5 -170.5t-172.5 -114t-215 -42h-227v-426h-285zM367 690h208q120 0 196.5 78.5t76.5 192.5t-76.5 192t-196.5 78h-208v-541z" />
<glyph unicode="Q" horiz-adv-x="1611" d="M41 748q0 209 102 385.5t278 279.5t384 103q209 0 385.5 -103t278.5 -279.5t102 -385.5q0 -281 -170 -488l203 -260h-349l-563 739h340l187 -241q69 119 69 250q0 132 -64.5 244t-175.5 177.5t-243 65.5t-242.5 -65.5t-174.5 -177.5t-64 -244t64 -244.5t174.5 -178 t242.5 -65.5q64 0 139 21l178 -234q-150 -67 -317 -67q-209 0 -384.5 102.5t-277.5 279t-102 386.5z" />
<glyph unicode="R" horiz-adv-x="1173" d="M82 0v1495h469q252 0 401.5 -142t149.5 -360q0 -96 -30 -181t-96.5 -155.5t-162.5 -107.5l340 -549h-326l-448 739h139q79 0 139 24.5t93 63.5t49 81t16 85q0 117 -70.5 176.5t-226.5 59.5h-151v-1229h-285z" />
<glyph unicode="S" horiz-adv-x="1153" d="M4 248l260 205q56 -96 140.5 -148.5t183.5 -52.5q104 0 163.5 58t59.5 139q0 34 -16 61.5t-39.5 46.5t-64 37t-75.5 29.5t-87 27.5q-18 5 -27 8q-53 16 -87.5 28t-83.5 33t-81 42t-67.5 54t-56.5 70t-34.5 88t-13.5 111q0 182 141 306.5t356 124.5q170 0 286 -56 t218 -162l-235 -178q-94 142 -266 142q-97 0 -151 -46.5t-54 -119.5q0 -31 15 -57.5t37.5 -44.5t61.5 -36t73 -30t85 -29q21 -7 31 -10q52 -17 88.5 -30.5t85 -36t82.5 -45.5t69.5 -57t57 -72.5t35.5 -90t14 -111.5q0 -90 -35 -173.5t-99.5 -149t-164 -104.5t-219.5 -39 q-351 0 -586 268z" />
<glyph unicode="T" horiz-adv-x="1181" d="M51 1223v272h1079v-272h-397v-1223h-284v1223h-398z" />
<glyph unicode="U" horiz-adv-x="1243" d="M82 518v977h285v-995q0 -108 72 -182t179 -74q108 0 183.5 74.5t75.5 181.5v995h284v-977q0 -173 -71 -296.5t-191 -182.5t-278 -59q-118 0 -216 34.5t-170 100.5t-112.5 169t-40.5 234z" />
<glyph unicode="V" horiz-adv-x="1343" d="M29 1495h295l348 -1061l348 1061h295l-500 -1495h-287z" />
<glyph unicode="W" horiz-adv-x="2088" d="M27 1495h297l278 -1034l307 1034h281l307 -1030l275 1030h288l-422 -1495h-280l-309 1044l-308 -1044h-290z" />
<glyph unicode="X" horiz-adv-x="1288" d="M20 0l455 756l-446 739h319l295 -491l297 491h320l-449 -739l457 -756h-320l-305 506l-303 -506h-320z" />
<glyph unicode="Y" horiz-adv-x="1288" d="M25 1495h313l305 -514l307 514h314l-480 -793v-702h-284v709z" />
<glyph unicode="Z" horiz-adv-x="1132" d="M72 0v262l651 961h-629v272h967v-260l-653 -963h653v-272h-989z" />
<glyph unicode="[" horiz-adv-x="702" d="M72 -471v1966h559v-272h-275v-1422h275v-272h-559z" />
<glyph unicode="\" horiz-adv-x="1048" d="M20 1495h302l708 -1495h-301z" />
<glyph unicode="]" horiz-adv-x="702" d="M72 -199h274v1422h-274v272h559v-1966h-559v272z" />
<glyph unicode="^" horiz-adv-x="964" d="M152 1126l243 349h174l244 -349h-211l-121 181l-119 -181h-210z" />
<glyph unicode="_" horiz-adv-x="901" d="M72 -20h757v-240h-757v240z" />
<glyph unicode="`" horiz-adv-x="964" d="M213 1475h262l234 -349h-189z" />
<glyph unicode="a" horiz-adv-x="1196" d="M41 512q0 105 29.5 194t79 150t114.5 104.5t134.5 63.5t140.5 20q192 0 305 -120v100h280v-1024h-280v115q-53 -62 -132.5 -98.5t-176.5 -36.5q-67 0 -135 20.5t-132.5 64t-115 104.5t-81 150t-30.5 193zM315 514q0 -118 79 -197t196 -79q113 0 187.5 80.5t74.5 195.5 t-74.5 194.5t-187.5 79.5q-117 0 -196 -78t-79 -196z" />
<glyph unicode="b" horiz-adv-x="1187" d="M72 0v1495h280v-584q110 133 307 133q71 0 140.5 -20t134 -63.5t113.5 -104.5t78.5 -150t29.5 -194q0 -104 -30.5 -193t-80 -150t-114 -104.5t-132 -64t-134.5 -20.5q-99 0 -180 35t-132 96v-111h-280zM344 514q0 -115 74.5 -195.5t187.5 -80.5q117 0 196 79t79 197 t-79 196t-196 78q-113 0 -187.5 -79.5t-74.5 -194.5z" />
<glyph unicode="c" horiz-adv-x="1095" d="M41 512q0 145 70.5 267.5t192.5 193.5t267 71q171 0 301.5 -88.5t192.5 -234.5l-250 -107q-30 73 -95.5 118.5t-146.5 45.5q-110 0 -186 -77.5t-76 -188.5t76 -188.5t186 -77.5q81 0 146.5 45.5t95.5 118.5l250 -107q-62 -146 -192.5 -234.5t-301.5 -88.5q-145 0 -267 71 t-192.5 193.5t-70.5 267.5z" />
<glyph unicode="d" horiz-adv-x="1196" d="M41 512q0 105 29.5 194t79 150t114.5 104.5t134.5 63.5t140.5 20q192 0 305 -120v571h280v-1495h-280v115q-53 -62 -132.5 -98.5t-176.5 -36.5q-67 0 -135 20.5t-132.5 64t-115 104.5t-81 150t-30.5 193zM315 514q0 -118 79 -197t196 -79q113 0 187.5 80.5t74.5 195.5 t-74.5 194.5t-187.5 79.5q-117 0 -196 -78t-79 -196z" />
<glyph unicode="e" horiz-adv-x="1144" d="M41 512q0 145 71 267.5t193.5 193.5t267.5 71q153 0 275 -71t188 -191.5t66 -267.5v-102h-791q25 -87 95 -137t178 -50q84 0 151 43t101 117l223 -133q-69 -125 -191 -198.5t-286 -73.5q-156 0 -280.5 71.5t-192.5 192.5t-68 268zM324 637h495q-28 79 -91 120.5 t-153 41.5q-87 0 -152.5 -44t-98.5 -118z" />
<glyph unicode="f" horiz-adv-x="749" d="M51 772v252h174v27q0 251 97.5 347.5t353.5 96.5h22v-262q-46 0 -74.5 -2t-51.5 -10.5t-34.5 -19.5t-19.5 -33.5t-10 -49t-2 -69.5v-25h192v-252h-192v-772h-281v772h-174z" />
<glyph unicode="g" horiz-adv-x="1196" d="M41 512q0 105 29.5 194t79 150t114.5 104.5t134.5 63.5t140.5 20q188 0 305 -131v111h280v-995q0 -109 -34.5 -203.5t-99.5 -166t-166.5 -112.5t-227.5 -41q-186 0 -327 83.5t-206 211.5l248 140q87 -174 285 -174q110 0 179 73.5t69 177.5v97q-53 -62 -132.5 -98.5 t-176.5 -36.5q-67 0 -135 20.5t-132.5 64t-115 104.5t-81 150t-30.5 193zM315 514q0 -118 79 -197t196 -79q113 0 187.5 80.5t74.5 195.5t-74.5 194.5t-187.5 79.5q-117 0 -196 -78t-79 -196z" />
<glyph unicode="h" horiz-adv-x="1091" d="M72 0v1495h278v-584q110 133 283 133q182 0 284.5 -110.5t102.5 -308.5v-625h-285v586q0 105 -47.5 162t-140.5 57q-85 0 -140 -62t-55 -184v-559h-280z" />
<glyph unicode="i" d="M72 0v1024h280v-1024h-280zM72 1126v281h280v-281h-280z" />
<glyph unicode="j" d="M-121 -209q55 0 86.5 4.5t55 14t33.5 32.5t14 52t4 81v1049h280v-1051q0 -251 -94 -347.5t-338 -96.5h-41v262zM72 1126v281h280v-281h-280z" />
<glyph unicode="k" horiz-adv-x="1110" d="M72 0v1495h280v-924l377 453h326l-373 -442l393 -582h-307l-279 410l-137 -162v-248h-280z" />
<glyph unicode="l" d="M72 0v1495h280v-1495h-280z" />
<glyph unicode="m" horiz-adv-x="1718" d="M72 0v1024h278v-109q102 129 273 129q221 0 315 -161q53 75 137 118t182 43q192 0 291 -109t99 -310v-625h-285v588q0 217 -178 217q-84 0 -134.5 -61t-50.5 -185v-559h-284v588q0 217 -178 217q-84 0 -134.5 -61t-50.5 -185v-559h-280z" />
<glyph unicode="n" horiz-adv-x="1091" d="M72 0v1024h278v-115q50 64 123.5 99.5t159.5 35.5q182 0 284.5 -110.5t102.5 -308.5v-625h-285v588q0 104 -47.5 160.5t-140.5 56.5q-85 0 -140 -62t-55 -184v-559h-280z" />
<glyph unicode="o" horiz-adv-x="1142" d="M41 512q0 145 70.5 267.5t192.5 193.5t267 71t267.5 -71t193 -193.5t70.5 -267.5t-70.5 -267.5t-193 -193.5t-267.5 -71t-267 71t-192.5 193.5t-70.5 267.5zM315 512q0 -110 74 -188t182 -78q107 0 182.5 78.5t75.5 187.5t-75.5 187.5t-182.5 78.5q-108 0 -182 -78 t-74 -188z" />
<glyph unicode="p" horiz-adv-x="1187" d="M72 -471v1495h280v-117q113 137 307 137q71 0 140.5 -20t134 -63.5t113.5 -104.5t78.5 -150t29.5 -194q0 -104 -30.5 -193t-80 -150t-114 -104.5t-132 -64t-134.5 -20.5q-101 0 -181.5 31.5t-130.5 88.5v-571h-280zM344 514q0 -115 74.5 -195.5t187.5 -80.5q117 0 196 79 t79 197t-79 196t-196 78q-113 0 -187.5 -79.5t-74.5 -194.5z" />
<glyph unicode="q" horiz-adv-x="1196" d="M41 512q0 105 29.5 194t79 150t114.5 104.5t134.5 63.5t140.5 20q188 0 305 -131v111h280v-1495h-280v573q-109 -122 -309 -122q-67 0 -135 20.5t-132.5 64t-115 104.5t-81 150t-30.5 193zM315 514q0 -118 79 -197t196 -79q113 0 187.5 80.5t74.5 195.5t-74.5 194.5 t-187.5 79.5q-117 0 -196 -78t-79 -196z" />
<glyph unicode="r" horiz-adv-x="800" d="M72 0v1024h278v-168q81 168 283 168h112v-272h-178q-113 0 -164 -63.5t-51 -205.5v-483h-280z" />
<glyph unicode="s" horiz-adv-x="956" d="M10 256l269 104q55 -139 215 -139q66 0 103.5 26.5t37.5 65.5q0 42 -91 68q-32 8 -128 27q-62 11 -109.5 24.5t-99 38t-84.5 56.5t-54.5 82.5t-21.5 113.5q-1 134 117 229q114 92 292 92h11q311 0 434 -237l-248 -105q-21 52 -70.5 82.5t-117.5 30.5q-65 0 -99 -24 t-34 -60q0 -32 44 -49.5t169 -42.5q61 -12 106 -25t98 -38t86.5 -57t56.5 -82.5t23 -114.5q0 -58 -27 -117.5t-78.5 -111t-137.5 -83.5q-83 -31 -185 -30h-6q-358 0 -471 276z" />
<glyph unicode="t" horiz-adv-x="759" d="M51 772v252h174v240l281 153v-393h192v-252h-192v-326q0 -43 2 -69.5t10 -49t19.5 -33.5t34.5 -19.5t51.5 -10.5t74.5 -2v-262h-41q-244 0 -338 96.5t-94 347.5v328h-174z" />
<glyph unicode="u" horiz-adv-x="1091" d="M72 399v625h284v-588q0 -104 48 -160.5t141 -56.5q85 0 139.5 61.5t54.5 184.5v559h281v-1024h-279v113q-110 -133 -282 -133q-182 0 -284.5 110.5t-102.5 308.5z" />
<glyph unicode="v" horiz-adv-x="1116" d="M33 1024h289l239 -666l234 666h284l-377 -1024h-282z" />
<glyph unicode="w" horiz-adv-x="1810" d="M51 1026l281 -2l209 -653l233 653h279l219 -653l221 653h279l-365 -1024h-270l-230 651l-239 -651h-273z" />
<glyph unicode="x" horiz-adv-x="1150" d="M31 0l377 520l-363 504h342l199 -287l194 287h330l-354 -506l383 -518h-342l-215 299l-209 -299h-342z" />
<glyph unicode="y" horiz-adv-x="1128" d="M25 1024h294l252 -631l236 631h291l-594 -1497h-281l209 518z" />
<glyph unicode="z" horiz-adv-x="1048" d="M61 0v250l539 526h-530v248h907v-252l-539 -524h549v-248h-926z" />
<glyph unicode="{" horiz-adv-x="757" d="M41 375v262q66 0 103 8.5t57.5 35t26 61.5t5.5 100v209q0 251 97.5 347.5t353.5 96.5h23v-262q-55 0 -86.5 -4.5t-55 -14t-33.5 -32.5t-14 -52t-4 -81v-209q0 -132 -36.5 -213t-119.5 -121q83 -40 119.5 -121t36.5 -213v-197q0 -52 4 -81t14 -52t33.5 -32.5t55 -14 t86.5 -4.5v-262h-23q-256 0 -353.5 96.5t-97.5 347.5v197q0 65 -5.5 100t-26 61.5t-57.5 35t-103 8.5z" />
<glyph unicode="|" horiz-adv-x="428" d="M72 -471v1966h284v-1966h-284z" />
<glyph unicode="}" horiz-adv-x="757" d="M51 -209q55 0 86.5 4.5t55 14t33.5 32.5t14 52t4 81v197q0 133 35 213.5t118 120.5q-83 40 -118 120.5t-35 213.5v209q0 52 -4 81t-14 52t-33.5 32.5t-55 14t-86.5 4.5v262h23q104 0 178 -14.5t127.5 -45.5t84.5 -84t45.5 -125.5t14.5 -174.5v-209q0 -65 6 -100.5 t26.5 -61.5t57.5 -34.5t103 -8.5v-262q-66 0 -103 -8.5t-57.5 -34.5t-26.5 -61.5t-6 -100.5v-197q0 -102 -14.5 -174.5t-45.5 -125.5t-84.5 -84t-127.5 -45.5t-178 -14.5h-23v262z" />
<glyph unicode="~" horiz-adv-x="964" d="M129 1178q0 126 57.5 201t157.5 75q76 0 156 -49q4 -3 16 -10.5t16.5 -10.5t14 -8.5t15.5 -8t14 -6t15.5 -4.5t14.5 -1q56 0 56 90h161q0 -129 -55 -203t-160 -74q-37 0 -74.5 12t-52.5 20.5t-51 29.5q-60 35 -86 35q-53 0 -53 -88h-162z" />
<glyph unicode="&#xa1;" d="M72 -231q0 204 17.5 444t45.5 428h154q28 -188 45.5 -428t17.5 -444v-240h-280v240zM72 743v281h280v-281h-280z" />
<glyph unicode="&#xa2;" horiz-adv-x="1204" d="M61 547q0 195 116 346t298 201v268h285v-262q136 -30 237.5 -117.5t155.5 -212.5l-252 -108q-34 84 -107.5 135t-166.5 51q-124 0 -209.5 -87.5t-85.5 -213.5t85.5 -213.5t209.5 -87.5q92 0 166 50.5t108 133.5l252 -106q-53 -126 -155 -213t-238 -117v-260h-285v266 q-182 50 -298 201t-116 346z" />
<glyph unicode="&#xa3;" horiz-adv-x="1204" d="M68 211q0 106 69 175t189 69q86 0 168 -47q-5 24 -15 48t-28 54t-30 48.5t-39 58t-38 55.5h-233v225h110q-35 87 -35 190q0 194 124 311.5t333 117.5q184 0 300 -80.5t159 -223.5l-271 -96q-40 152 -184 152q-85 0 -128.5 -48t-43.5 -128q0 -83 49 -195h394v-225h-285 q69 -163 69 -322q0 -57 -14 -106q39 -39 70 -39q39 0 51 24t12 95v165h291v-157q0 -190 -60.5 -271t-220.5 -81q-114 0 -237 96q-89 -99 -213 -99q-158 0 -235.5 61.5t-77.5 172.5zM305 209q0 -18 15 -29.5t42 -11.5q47 0 82 35q-60 43 -98 43q-19 0 -30 -11t-11 -26z" />
<glyph unicode="&#xa4;" horiz-adv-x="1583" d="M61 1294l209 197l271 -283q122 66 258 66q135 0 254 -64l258 265l207 -201l-261 -266q72 -125 72 -267q0 -147 -74 -270l263 -272l-207 -199l-262 270q-116 -61 -250 -61q-142 0 -264 67l-263 -270l-206 203l268 274q-66 117 -66 258q0 142 68 265zM543 741 q0 -110 74 -188t182 -78q107 0 182.5 78.5t75.5 187.5t-75.5 188t-182.5 79q-108 0 -182 -78.5t-74 -188.5z" />
<glyph unicode="&#xa5;" horiz-adv-x="1204" d="M45 1495h320l239 -397l240 397h315l-416 -645v-47h299v-230h-299v-157h299v-230h-299v-186h-284v186h-297v230h297v157h-297v230h297v51z" />
<glyph unicode="&#xa6;" horiz-adv-x="428" d="M72 389h284v-860h-284v860zM72 635v860h284v-860h-284z" />
<glyph unicode="&#xa7;" horiz-adv-x="1173" d="M37 772q0 79 48.5 144t125.5 98q-64 80 -64 182q0 140 114 231.5t317 88.5q177 0 304.5 -83.5t161.5 -199.5l-268 -76q-11 59 -67 99t-138 40q-77 0 -117 -24t-40 -64q0 -50 69.5 -83t210.5 -66q81 -19 141.5 -37.5t120 -47t97.5 -61.5t61 -80t23 -104q0 -77 -42 -137.5 t-114 -95.5q70 -73 70 -179q0 -143 -131 -241.5t-338 -95.5q-186 0 -324 93t-174 216l283 78q19 -68 84 -111t153 -43q81 0 123.5 25.5t42.5 66.5q0 12 -4 23t-14 20t-20 16.5t-29 14.5t-33.5 12t-41.5 12t-44.5 11t-51 11.5t-53.5 12.5q-81 19 -141 37.5t-120 47t-97.5 62 t-60.5 81t-23 106.5zM319 805q0 -27 19.5 -47.5t68 -39t96.5 -31.5t138 -34q75 -17 145 -43q68 28 68 80q0 14 -5 26t-17.5 22.5t-25.5 19.5t-37.5 18.5t-45 16.5t-56 16.5t-62.5 16.5t-73 18q-73 15 -137 43q-76 -25 -76 -82z" />
<glyph unicode="&#xa8;" horiz-adv-x="964" d="M152 1126v281h280v-281h-280zM535 1126v281h280v-281h-280z" />
<glyph unicode="&#xa9;" horiz-adv-x="1611" d="M41 748q0 209 102 385.5t278 279.5t384 103q209 0 385.5 -103t278.5 -279.5t102 -385.5q0 -157 -60 -299.5t-162.5 -245t-244.5 -163t-299 -60.5q-209 0 -384.5 102.5t-277.5 279t-102 386.5zM266 748q0 -150 69.5 -276t194 -200.5t275.5 -74.5q149 0 275 74t199 201 t73 276t-73 275.5t-199 200.5t-275 74q-151 0 -275.5 -74t-194 -200t-69.5 -276zM399 748q0 174 119.5 293.5t300.5 119.5q121 0 220 -63.5t145 -161.5l-217 -98q-10 41 -49.5 70.5t-100.5 29.5q-79 0 -133.5 -55t-54.5 -135t54.5 -135.5t133.5 -55.5q58 0 100.5 30.5 t53.5 71.5l223 -77q-48 -109 -148.5 -178.5t-226.5 -69.5q-182 0 -301 120t-119 294z" />
<glyph unicode="&#xaa;" horiz-adv-x="739" d="M37 1198q0 79 26 141.5t68 97.5t87.5 52.5t90.5 17.5q94 0 154 -63v51h205v-594h-205v62q-62 -72 -158 -72q-45 0 -90 18t-86 53t-66.5 96.5t-25.5 139.5zM238 1200q0 -52 33.5 -86.5t84.5 -34.5q50 0 81.5 35t31.5 86t-31.5 85t-81.5 34q-52 0 -85 -33t-33 -86z" />
<glyph unicode="&#xab;" horiz-adv-x="978" d="M92 444v158l377 232v-191l-203 -121l203 -119v-190zM510 444v158l377 232v-191l-203 -121l203 -119v-190z" />
<glyph unicode="&#xac;" horiz-adv-x="1234" d="M57 786v273h1106v-746h-284v473h-822z" />
<glyph unicode="&#xad;" horiz-adv-x="901" d="M72 401v240h757v-240h-757z" />
<glyph unicode="&#xae;" horiz-adv-x="1611" d="M41 512q0 209 102 385.5t278 279.5t384 103q209 0 385.5 -103t278.5 -279.5t102 -385.5q0 -157 -60 -299.5t-162.5 -245t-244.5 -163t-299 -60.5q-209 0 -384.5 102.5t-277.5 279t-102 386.5zM266 512q0 -150 69.5 -276t194 -200.5t275.5 -74.5q149 0 275 74t199 201 t73 276t-73 276t-199 201t-275 74q-151 0 -275.5 -74.5t-194 -200.5t-69.5 -276zM477 133v766h359q161 0 255.5 -81.5t94.5 -192.5q0 -86 -39 -147.5t-115 -90.5l150 -254h-260l-199 381h104q52 0 85.5 24.5t33.5 73.5q0 93 -123 93h-110v-572h-236z" />
<glyph unicode="&#xaf;" horiz-adv-x="964" d="M213 1126v177h541v-177h-541z" />
<glyph unicode="&#xb0;" horiz-adv-x="815" d="M41 1149q0 152 107.5 259.5t259.5 107.5t259 -107.5t107 -259.5t-107 -259.5t-259 -107.5t-259.5 107.5t-107.5 259.5zM279 1149q0 -53 38.5 -91t90.5 -38t90.5 38t38.5 91t-38.5 91t-90.5 38t-90.5 -38t-38.5 -91z" />
<glyph unicode="&#xb1;" horiz-adv-x="901" d="M72 238v239h757v-239h-757zM72 852v240h262v258h235v-258h260v-240h-260v-260h-235v260h-262z" />
<glyph unicode="&#xb2;" horiz-adv-x="675" d="M6 1298q47 99 131 154t201 55q140 0 228.5 -74t88.5 -190q0 -58 -21 -106.5t-61 -85t-75.5 -59.5t-85.5 -48q-94 -49 -115 -68q-15 -15 -18 -28h370v-217h-622v172q0 61 20 112t57.5 88t73 61.5t84.5 49.5q8 4 22 12q47 25 68.5 38.5t41.5 34.5t20 42q0 28 -21 46t-59 18 q-43 0 -75.5 -32.5t-49.5 -78.5z" />
<glyph unicode="&#xb3;" horiz-adv-x="665" d="M8 727l178 160q53 -56 123 -56q39 0 63.5 18.5t24.5 51.5q0 66 -116 66h-91v204h86q49 0 76 18.5t27 51.5q0 29 -22 45.5t-62 16.5q-32 0 -61 -15.5t-44 -40.5l-167 146q51 53 128 83.5t152 30.5q144 0 234 -70t90 -188q0 -100 -84 -168q104 -65 104 -186 q0 -120 -88.5 -198.5t-234.5 -78.5q-93 0 -177.5 27.5t-138.5 81.5z" />
<glyph unicode="&#xb4;" horiz-adv-x="964" d="M213 1126l233 349h263l-308 -349h-188z" />
<glyph unicode="&#xb5;" horiz-adv-x="1071" d="M61 -471v1495h285v-532q0 -132 46.5 -201.5t139.5 -69.5q86 0 141.5 61t55.5 183v559h281v-1024h-279v98q-94 -118 -252 -118q-71 0 -139 30v-481h-279z" />
<glyph unicode="&#xb6;" horiz-adv-x="1353" d="M41 1057q0 184 127 311t315 127h799v-1495h-244v1231h-123v-1231h-243v618h-187q-190 0 -317 127t-127 312z" />
<glyph unicode="&#xb7;" d="M72 381v281h280v-281h-280z" />
<glyph unicode="&#xb8;" horiz-adv-x="964" d="M139 -371l160 97q31 -24 47.5 -35.5t46 -22t62.5 -10.5q45 0 77.5 17.5t32.5 43.5q0 56 -116 56h-105v225h174v-109q113 4 174.5 -41t61.5 -122q0 -95 -93 -157.5t-229 -62.5q-77 0 -154.5 33t-138.5 88z" />
<glyph unicode="&#xb9;" horiz-adv-x="610" d="M27 631v217h166v332q-42 -54 -130 -54h-12v224h6q54 0 88 24.5t45 55t11 65.5h227v-647h160v-217h-561z" />
<glyph unicode="&#xba;" horiz-adv-x="686" d="M37 1198q0 129 89.5 219t217.5 90q127 0 216 -90t89 -219q0 -128 -89 -217.5t-216 -89.5q-128 0 -217.5 89.5t-89.5 217.5zM236 1198q0 -47 31 -80t77 -33q45 0 77 33.5t32 79.5q0 47 -31.5 81t-77.5 34q-47 0 -77.5 -33.5t-30.5 -81.5z" />
<glyph unicode="&#xbb;" horiz-adv-x="978" d="M92 213v190l203 119l-203 121v191l377 -232v-158zM510 213v190l203 119l-203 121v191l377 -232v-158z" />
<glyph unicode="&#xbc;" horiz-adv-x="1753" d="M27 631v217h166v332q-42 -54 -130 -54h-12v224h6q54 0 88 24.5t45 55t11 65.5h227v-647h160v-217h-561zM172 0l1079 1495h328l-1079 -1495h-328zM1038 170v207l342 487h219v-495h127v-199h-127v-170h-217v170h-344zM1280 369h102v147z" />
<glyph unicode="&#xbd;" horiz-adv-x="1783" d="M27 631v217h166v332q-42 -54 -130 -54h-12v224h6q54 0 88 24.5t45 55t11 65.5h227v-647h160v-217h-561zM172 0l1079 1495h328l-1079 -1495h-328zM1114 668q47 99 131 154t201 55q140 0 228.5 -74.5t88.5 -190.5q0 -58 -21 -106.5t-61 -85t-75.5 -59.5t-85.5 -48 q-94 -48 -115 -67q-16 -15 -19 -29h371v-217h-622v172q0 61 20 112t57.5 88t73 61.5t84.5 49.5q8 4 22 12q47 25 68.5 38.5t41.5 34.5t20 42q0 28 -21 46t-59 18q-43 0 -75.5 -32.5t-49.5 -78.5z" />
<glyph unicode="&#xbe;" horiz-adv-x="1767" d="M8 727l178 160q53 -56 123 -56q39 0 63.5 18.5t24.5 51.5q0 66 -116 66h-91v204h86q49 0 76 18.5t27 51.5q0 29 -22 45.5t-62 16.5q-32 0 -61 -15.5t-44 -40.5l-167 146q51 53 128 83.5t152 30.5q144 0 234 -70t90 -188q0 -100 -84 -168q104 -65 104 -186 q0 -120 -88.5 -198.5t-234.5 -78.5q-93 0 -177.5 27.5t-138.5 81.5zM186 0l1080 1495h327l-1079 -1495h-328zM1053 170v207l342 487h219v-495h127v-199h-127v-170h-217v170h-344zM1294 369h103v147z" />
<glyph unicode="&#xbf;" horiz-adv-x="1054" d="M63 -61q0 79 20.5 140t53.5 100t72.5 72t79.5 65.5t73 70.5t53.5 96t20.5 133v23h252v-23q0 -101 -18.5 -181t-48 -130t-65.5 -89t-72 -68.5t-65.5 -58t-48 -67.5t-18.5 -88q0 -78 52.5 -128t138.5 -50q77 0 129.5 48.5t70.5 125.5l265 -88q-38 -154 -158 -244t-311 -90 q-210 0 -343 119t-133 312zM422 743v281h280v-281h-280z" />
<glyph unicode="&#xc0;" horiz-adv-x="1404" d="M29 0l530 1495h287l530 -1495h-297l-90 260h-573l-90 -260h-297zM307 1946h262l234 -349h-189zM510 532h385l-193 558z" />
<glyph unicode="&#xc1;" horiz-adv-x="1404" d="M29 0l530 1495h287l530 -1495h-297l-90 260h-573l-90 -260h-297zM510 532h385l-193 558zM608 1597l234 349h262l-307 -349h-189z" />
<glyph unicode="&#xc2;" horiz-adv-x="1404" d="M29 0l530 1495h287l530 -1495h-297l-90 260h-573l-90 -260h-297zM371 1597l243 349h174l244 -349h-211l-121 181l-118 -181h-211zM510 532h385l-193 558z" />
<glyph unicode="&#xc3;" horiz-adv-x="1404" d="M29 0l530 1495h287l530 -1495h-297l-90 260h-573l-90 -260h-297zM354 1597q0 126 57.5 201.5t157.5 75.5q76 0 156 -49q4 -3 16 -10.5t16.5 -10.5t14 -8.5t15.5 -8t14 -6t15.5 -4.5t14.5 -1q56 0 56 90h162q0 -129 -55 -203t-160 -74q-37 0 -74.5 11.5t-53.5 20.5t-51 30 q-60 35 -86 35q-53 0 -53 -89h-162zM510 532h385l-193 558z" />
<glyph unicode="&#xc4;" horiz-adv-x="1404" d="M29 0l530 1495h287l530 -1495h-297l-90 260h-573l-90 -260h-297zM371 1597v281h280v-281h-280zM510 532h385l-193 558zM754 1597v281h280v-281h-280z" />
<glyph unicode="&#xc5;" horiz-adv-x="1404" d="M29 0l499 1409q-65 68 -65 166q0 101 69.5 171.5t167.5 70.5q101 0 171.5 -70.5t70.5 -171.5q0 -98 -68 -166l502 -1409h-297l-90 260h-573l-90 -260h-297zM510 532h385l-193 558zM621 1575q0 -31 21.5 -55t51.5 -25h13q32 1 54.5 25t22.5 55q0 34 -25 59t-59 25 q-32 0 -55.5 -25t-23.5 -59z" />
<glyph unicode="&#xc6;" horiz-adv-x="1910" d="M25 0l680 1495h1140v-272h-782l86 -336h696v-273h-626l86 -342h540v-272h-770l-63 258h-576l-114 -258h-297zM555 522h391l-139 565z" />
<glyph unicode="&#xc7;" horiz-adv-x="1505" d="M41 748q0 164 59.5 307.5t162 244t244.5 158.5t302 58q207 0 381 -100.5t274 -270.5l-250 -160q-135 250 -405 250q-208 0 -346.5 -140t-138.5 -347q0 -133 62 -243.5t172.5 -175.5t244.5 -65q147 0 255.5 76t168.5 203l260 -137q-92 -179 -252.5 -292t-357.5 -130v-93 q112 4 173.5 -41t61.5 -122q0 -95 -92.5 -157.5t-228.5 -62.5q-77 0 -154.5 33t-138.5 88l159 97q31 -24 47.5 -35.5t46 -22t62.5 -10.5q45 0 78 17.5t33 43.5q0 56 -117 56h-105v213q-198 23 -349 129.5t-231.5 270.5t-80.5 360z" />
<glyph unicode="&#xc8;" horiz-adv-x="1034" d="M82 0v1495h887v-272h-602v-336h602v-273h-602v-342h602v-272h-887zM143 1946h263l233 -349h-188z" />
<glyph unicode="&#xc9;" horiz-adv-x="1034" d="M82 0v1495h887v-272h-602v-336h602v-273h-602v-342h602v-272h-887zM412 1597l233 349h262l-307 -349h-188z" />
<glyph unicode="&#xca;" horiz-adv-x="1034" d="M82 0v1495h887v-272h-602v-336h602v-273h-602v-342h602v-272h-887zM195 1597l243 349h174l244 -349h-211l-121 181l-118 -181h-211z" />
<glyph unicode="&#xcb;" horiz-adv-x="1034" d="M82 0v1495h887v-272h-602v-336h602v-273h-602v-342h602v-272h-887zM203 1597v281h280v-281h-280zM586 1597v281h280v-281h-280z" />
<glyph unicode="&#xcc;" horiz-adv-x="468" d="M-166 1946h262l234 -349h-189zM92 0v1495h285v-1495h-285z" />
<glyph unicode="&#xcd;" horiz-adv-x="468" d="M92 0v1495h285v-1495h-285zM143 1597l234 349h262l-307 -349h-189z" />
<glyph unicode="&#xce;" horiz-adv-x="468" d="M-94 1597l244 349h174l243 -349h-211l-120 181l-119 -181h-211zM92 0v1495h285v-1495h-285z" />
<glyph unicode="&#xcf;" horiz-adv-x="468" d="M-117 1597v281h281v-281h-281zM92 0v1495h285v-1495h-285zM307 1597v281h281v-281h-281z" />
<glyph unicode="&#xd0;" horiz-adv-x="1419" d="M41 631v239h139v625h408q186 0 336.5 -57t249 -157.5t151.5 -237t53 -295.5q0 -211 -98.5 -381.5t-276.5 -268.5t-403 -98h-420v631h-139zM465 264h102q158 0 279 64t184.5 173.5t63.5 246.5q0 221 -136.5 352t-402.5 131h-90v-361h334v-239h-334v-367z" />
<glyph unicode="&#xd1;" horiz-adv-x="1406" d="M82 0v1495h324l634 -1006v1006h285v-1495h-303l-655 1038v-1038h-285zM352 1597q0 126 57.5 201.5t157.5 75.5q76 0 156 -49q4 -3 16 -10.5t16.5 -10.5t14 -8.5t15.5 -8t14 -6t15.5 -4.5t14.5 -1q56 0 56 90h162q0 -129 -55.5 -203t-160.5 -74q-37 0 -74.5 12t-52.5 20.5 t-51 29.5q-60 35 -86 35q-53 0 -53 -89h-162z" />
<glyph unicode="&#xd2;" horiz-adv-x="1611" d="M41 748q0 209 102 385.5t278 279.5t384 103q209 0 385.5 -103t278.5 -279.5t102 -385.5q0 -157 -60 -299.5t-162.5 -245t-244.5 -163t-299 -60.5q-209 0 -384.5 102.5t-277.5 279t-102 386.5zM324 748q0 -132 64 -244.5t174.5 -178t242.5 -65.5t243 65.5t175.5 178 t64.5 244.5t-64.5 244t-175.5 177.5t-243 65.5t-242.5 -65.5t-174.5 -177.5t-64 -244zM403 1946h263l233 -349h-188z" />
<glyph unicode="&#xd3;" horiz-adv-x="1611" d="M41 748q0 209 102 385.5t278 279.5t384 103q209 0 385.5 -103t278.5 -279.5t102 -385.5q0 -157 -60 -299.5t-162.5 -245t-244.5 -163t-299 -60.5q-209 0 -384.5 102.5t-277.5 279t-102 386.5zM324 748q0 -132 64 -244.5t174.5 -178t242.5 -65.5t243 65.5t175.5 178 t64.5 244.5t-64.5 244t-175.5 177.5t-243 65.5t-242.5 -65.5t-174.5 -177.5t-64 -244zM698 1597l234 349h262l-307 -349h-189z" />
<glyph unicode="&#xd4;" horiz-adv-x="1611" d="M41 748q0 209 102 385.5t278 279.5t384 103q209 0 385.5 -103t278.5 -279.5t102 -385.5q0 -157 -60 -299.5t-162.5 -245t-244.5 -163t-299 -60.5q-209 0 -384.5 102.5t-277.5 279t-102 386.5zM324 748q0 -132 64 -244.5t174.5 -178t242.5 -65.5t243 65.5t175.5 178 t64.5 244.5t-64.5 244t-175.5 177.5t-243 65.5t-242.5 -65.5t-174.5 -177.5t-64 -244zM467 1597l244 349h174l243 -349h-210l-121 181l-119 -181h-211z" />
<glyph unicode="&#xd5;" horiz-adv-x="1611" d="M41 748q0 209 102 385.5t278 279.5t384 103q209 0 385.5 -103t278.5 -279.5t102 -385.5q0 -157 -60 -299.5t-162.5 -245t-244.5 -163t-299 -60.5q-209 0 -384.5 102.5t-277.5 279t-102 386.5zM324 748q0 -132 64 -244.5t174.5 -178t242.5 -65.5t243 65.5t175.5 178 t64.5 244.5t-64.5 244t-175.5 177.5t-243 65.5t-242.5 -65.5t-174.5 -177.5t-64 -244zM446 1597q0 126 58 201.5t158 75.5q75 0 155 -49q4 -2 14.5 -9t14 -9.5t13 -8t14 -7.5t12.5 -6t13.5 -5t12.5 -2.5t13 -1.5q55 0 55 90h162q0 -129 -55 -203t-160 -74q-37 0 -74.5 12 t-52.5 20.5t-51 29.5q-60 35 -86 35q-54 0 -54 -89h-162z" />
<glyph unicode="&#xd6;" horiz-adv-x="1611" d="M41 748q0 209 102 385.5t278 279.5t384 103q209 0 385.5 -103t278.5 -279.5t102 -385.5q0 -157 -60 -299.5t-162.5 -245t-244.5 -163t-299 -60.5q-209 0 -384.5 102.5t-277.5 279t-102 386.5zM324 748q0 -132 64 -244.5t174.5 -178t242.5 -65.5t243 65.5t175.5 178 t64.5 244.5t-64.5 244t-175.5 177.5t-243 65.5t-242.5 -65.5t-174.5 -177.5t-64 -244zM461 1597v281h280v-281h-280zM844 1597v281h280v-281h-280z" />
<glyph unicode="&#xd7;" horiz-adv-x="901" d="M70 958l166 166l215 -215l215 215l165 -166l-215 -215l213 -213l-165 -165l-213 213l-213 -213l-166 165l213 213z" />
<glyph unicode="&#xd8;" horiz-adv-x="1611" d="M41 0l192 236q-92 103 -142 234.5t-50 277.5q0 209 102 385.5t278 279.5t384 103q196 0 381 -103l67 82h328l-199 -244q189 -218 189 -503q0 -157 -60 -299.5t-162.5 -245t-244.5 -163t-299 -60.5q-200 0 -375 96l-61 -76h-328zM324 748q0 -161 90 -287l592 729 q-95 45 -201 45q-132 0 -242.5 -65.5t-174.5 -177.5t-64 -244zM612 301q87 -41 193 -41q132 0 243 65.5t175.5 178t64.5 244.5q0 153 -88 278z" />
<glyph unicode="&#xd9;" horiz-adv-x="1243" d="M82 518v977h285v-995q0 -108 72 -182t179 -74q108 0 183.5 74.5t75.5 181.5v995h284v-977q0 -173 -71 -296.5t-191 -182.5t-278 -59q-118 0 -216 34.5t-170 100.5t-112.5 169t-40.5 234zM238 1946h262l233 -349h-188z" />
<glyph unicode="&#xda;" horiz-adv-x="1243" d="M82 518v977h285v-995q0 -108 72 -182t179 -74q108 0 183.5 74.5t75.5 181.5v995h284v-977q0 -173 -71 -296.5t-191 -182.5t-278 -59q-118 0 -216 34.5t-170 100.5t-112.5 169t-40.5 234zM512 1597l233 349h263l-308 -349h-188z" />
<glyph unicode="&#xdb;" horiz-adv-x="1243" d="M82 518v977h285v-995q0 -108 72 -182t179 -74q108 0 183.5 74.5t75.5 181.5v995h284v-977q0 -173 -71 -296.5t-191 -182.5t-278 -59q-118 0 -216 34.5t-170 100.5t-112.5 169t-40.5 234zM291 1597l244 349h174l243 -349h-211l-120 181l-119 -181h-211z" />
<glyph unicode="&#xdc;" horiz-adv-x="1243" d="M82 518v977h285v-995q0 -108 72 -182t179 -74q108 0 183.5 74.5t75.5 181.5v995h284v-977q0 -173 -71 -296.5t-191 -182.5t-278 -59q-118 0 -216 34.5t-170 100.5t-112.5 169t-40.5 234zM299 1597v281h281v-281h-281zM682 1597v281h281v-281h-281z" />
<glyph unicode="&#xdd;" horiz-adv-x="1288" d="M25 1495h313l305 -514l307 514h314l-480 -793v-702h-284v709zM541 1597l233 349h262l-307 -349h-188z" />
<glyph unicode="&#xde;" horiz-adv-x="1140" d="M82 0v1495h285v-258h245q205 0 341.5 -138.5t136.5 -338.5q0 -202 -136.5 -340.5t-343.5 -138.5h-243v-281h-285zM367 545h229q93 0 152 62t59 153q0 90 -59 151.5t-152 61.5h-229v-428z" />
<glyph unicode="&#xdf;" horiz-adv-x="1060" d="M-121 -209q55 0 86.5 4.5t55 14t33.5 32.5t14 52t4 81v1059q-6 207 112.5 332t343.5 125q198 0 322.5 -118t124.5 -302q0 -191 -160 -303l-6 -4q91 -38 151 -129t60 -203q0 -199 -133 -325.5t-346 -126.5q-70 0 -103 6v245h99q87 0 141.5 56.5t54.5 142.5q0 85 -67.5 143 t-180.5 58h-47v254h47q100 0 160 53t60 133q0 79 -49 130.5t-132 51.5q-188 0 -188 -190v-1090q0 -129 -19 -211t-67.5 -136t-127 -75.5t-202.5 -21.5h-41v262z" />
<glyph unicode="&#xe0;" horiz-adv-x="1196" d="M41 512q0 105 29.5 194t79 150t114.5 104.5t134.5 63.5t140.5 20q192 0 305 -120v100h280v-1024h-280v115q-53 -62 -132.5 -98.5t-176.5 -36.5q-67 0 -135 20.5t-132.5 64t-115 104.5t-81 150t-30.5 193zM166 1475h262l234 -349h-189zM315 514q0 -118 79 -197t196 -79 q113 0 187.5 80.5t74.5 195.5t-74.5 194.5t-187.5 79.5q-117 0 -196 -78t-79 -196z" />
<glyph unicode="&#xe1;" horiz-adv-x="1196" d="M41 512q0 105 29.5 194t79 150t114.5 104.5t134.5 63.5t140.5 20q192 0 305 -120v100h280v-1024h-280v115q-53 -62 -132.5 -98.5t-176.5 -36.5q-67 0 -135 20.5t-132.5 64t-115 104.5t-81 150t-30.5 193zM315 514q0 -118 79 -197t196 -79q113 0 187.5 80.5t74.5 195.5 t-74.5 194.5t-187.5 79.5q-117 0 -196 -78t-79 -196zM430 1126l234 349h262l-308 -349h-188z" />
<glyph unicode="&#xe2;" horiz-adv-x="1196" d="M41 512q0 105 29.5 194t79 150t114.5 104.5t134.5 63.5t140.5 20q192 0 305 -120v100h280v-1024h-280v115q-53 -62 -132.5 -98.5t-176.5 -36.5q-67 0 -135 20.5t-132.5 64t-115 104.5t-81 150t-30.5 193zM293 1126l244 349h174l243 -349h-211l-120 181l-119 -181h-211z M315 514q0 -118 79 -197t196 -79q113 0 187.5 80.5t74.5 195.5t-74.5 194.5t-187.5 79.5q-117 0 -196 -78t-79 -196z" />
<glyph unicode="&#xe3;" horiz-adv-x="1196" d="M41 512q0 105 29.5 194t79 150t114.5 104.5t134.5 63.5t140.5 20q192 0 305 -120v100h280v-1024h-280v115q-53 -62 -132.5 -98.5t-176.5 -36.5q-67 0 -135 20.5t-132.5 64t-115 104.5t-81 150t-30.5 193zM250 1126q0 126 57.5 201.5t157.5 75.5q76 0 156 -49 q4 -3 16 -10.5t16.5 -10.5t14 -8.5t15.5 -8t14 -6t15.5 -4.5t14.5 -1q55 0 55 90h162q0 -129 -55 -203t-160 -74q-37 0 -74.5 12t-52.5 20.5t-51 29.5q-59 34 -86 34q-53 0 -53 -88h-162zM315 514q0 -118 79 -197t196 -79q113 0 187.5 80.5t74.5 195.5t-74.5 194.5 t-187.5 79.5q-117 0 -196 -78t-79 -196z" />
<glyph unicode="&#xe4;" horiz-adv-x="1196" d="M41 512q0 105 29.5 194t79 150t114.5 104.5t134.5 63.5t140.5 20q192 0 305 -120v100h280v-1024h-280v115q-53 -62 -132.5 -98.5t-176.5 -36.5q-67 0 -135 20.5t-132.5 64t-115 104.5t-81 150t-30.5 193zM276 1126v281h281v-281h-281zM315 514q0 -118 79 -197t196 -79 q113 0 187.5 80.5t74.5 195.5t-74.5 194.5t-187.5 79.5q-117 0 -196 -78t-79 -196zM659 1126v281h281v-281h-281z" />
<glyph unicode="&#xe5;" horiz-adv-x="1196" d="M41 512q0 105 29.5 194t79 150t114.5 104.5t134.5 63.5t140.5 20q192 0 305 -120v100h280v-1024h-280v115q-53 -62 -132.5 -98.5t-176.5 -36.5q-67 0 -135 20.5t-132.5 64t-115 104.5t-81 150t-30.5 193zM315 514q0 -118 79 -197t196 -79q113 0 187.5 80.5t74.5 195.5 t-74.5 194.5t-187.5 79.5q-117 0 -196 -78t-79 -196zM330 1350q0 101 69 171t168 70q101 0 171.5 -70t70.5 -171q0 -99 -70.5 -168.5t-171.5 -69.5q-98 0 -167.5 70t-69.5 168zM487 1350q0 -32 24 -56t56 -24q34 0 59 24t25 56q0 34 -25 59t-59 25q-32 0 -56 -25t-24 -59z " />
<glyph unicode="&#xe6;" horiz-adv-x="1810" d="M41 272q0 134 84.5 210t239.5 118q33 9 96.5 24.5t95 24.5t70 23.5t55 31.5t16.5 39q0 34 -40 58t-111 24q-110 0 -163.5 -48t-53.5 -120v-6h-254v4q0 185 120.5 287t338.5 102q116 0 207.5 -34.5t146.5 -98.5q149 133 350 133q150 0 272 -71t190 -193t68 -268v-90h-792 q22 -91 92.5 -144t181.5 -53q85 0 155.5 47t104.5 123l232 -94q-61 -144 -195 -232.5t-299 -88.5q-136 0 -245 53t-179 149q-55 -91 -165 -146.5t-244 -55.5q-188 0 -281.5 79.5t-93.5 212.5zM317 281q0 -70 113 -70q105 0 190 78.5t85 142.5v49q-5 -14 -61.5 -36.5 t-143.5 -43.5q-99 -24 -141 -50.5t-42 -69.5zM995 647h486q-31 73 -93.5 112.5t-146.5 39.5t-148.5 -41t-97.5 -111z" />
<glyph unicode="&#xe7;" horiz-adv-x="1095" d="M41 512q0 145 70.5 267.5t192.5 193.5t267 71q171 0 301.5 -88.5t192.5 -234.5l-250 -107q-30 73 -95.5 118.5t-146.5 45.5q-110 0 -186 -77.5t-76 -188.5t76 -188.5t186 -77.5q81 0 146.5 45.5t95.5 118.5l250 -107q-53 -126 -160.5 -211t-247.5 -106v-95 q113 4 174.5 -41t61.5 -122q0 -95 -93 -157.5t-229 -62.5q-77 0 -154 33t-138 88l159 97q31 -24 47.5 -35.5t46 -22t62.5 -10.5q45 0 78 17.5t33 43.5q0 56 -117 56h-105v213q-190 31 -316 178.5t-126 345.5z" />
<glyph unicode="&#xe8;" horiz-adv-x="1144" d="M41 512q0 145 71 267.5t193.5 193.5t267.5 71q153 0 275 -71t188 -191.5t66 -267.5v-102h-791q25 -87 95 -137t178 -50q84 0 151 43t101 117l223 -133q-69 -125 -191 -198.5t-286 -73.5q-156 0 -280.5 71.5t-192.5 192.5t-68 268zM193 1475h262l233 -349h-188zM324 637 h495q-28 79 -91 120.5t-153 41.5q-87 0 -152.5 -44t-98.5 -118z" />
<glyph unicode="&#xe9;" horiz-adv-x="1144" d="M41 512q0 145 71 267.5t193.5 193.5t267.5 71q153 0 275 -71t188 -191.5t66 -267.5v-102h-791q25 -87 95 -137t178 -50q84 0 151 43t101 117l223 -133q-69 -125 -191 -198.5t-286 -73.5q-156 0 -280.5 71.5t-192.5 192.5t-68 268zM324 637h495q-28 79 -91 120.5 t-153 41.5q-87 0 -152.5 -44t-98.5 -118zM457 1126l233 349h262l-307 -349h-188z" />
<glyph unicode="&#xea;" horiz-adv-x="1144" d="M41 512q0 145 71 267.5t193.5 193.5t267.5 71q153 0 275 -71t188 -191.5t66 -267.5v-102h-791q25 -87 95 -137t178 -50q84 0 151 43t101 117l223 -133q-69 -125 -191 -198.5t-286 -73.5q-156 0 -280.5 71.5t-192.5 192.5t-68 268zM233 1126l244 349h174l244 -349h-211 l-121 181l-119 -181h-211zM324 637h495q-28 79 -91 120.5t-153 41.5q-87 0 -152.5 -44t-98.5 -118z" />
<glyph unicode="&#xeb;" horiz-adv-x="1144" d="M41 512q0 145 71 267.5t193.5 193.5t267.5 71q153 0 275 -71t188 -191.5t66 -267.5v-102h-791q25 -87 95 -137t178 -50q84 0 151 43t101 117l223 -133q-69 -125 -191 -198.5t-286 -73.5q-156 0 -280.5 71.5t-192.5 192.5t-68 268zM240 1126v281h280v-281h-280zM324 637 h495q-28 79 -91 120.5t-153 41.5q-87 0 -152.5 -44t-98.5 -118zM623 1126v281h280v-281h-280z" />
<glyph unicode="&#xec;" d="M-154 1475h263l233 -349h-188zM72 0v1024h280v-1024h-280z" />
<glyph unicode="&#xed;" d="M72 0v1024h280v-1024h-280zM80 1126l233 349h262l-307 -349h-188z" />
<glyph unicode="&#xee;" d="M-119 1126l244 349h174l244 -349h-211l-121 181l-119 -181h-211zM72 0v1024h280v-1024h-280z" />
<glyph unicode="&#xef;" d="M-141 1126v281h280v-281h-280zM72 0v1024h280v-1024h-280zM283 1126v281h280v-281h-280z" />
<glyph unicode="&#xf0;" horiz-adv-x="1148" d="M41 510q0 222 143 366t357 144q101 0 176 -43q-65 90 -166 180l-98 -82h-240l223 185q-104 88 -315 235h389q57 -45 104 -86l103 86h237l-227 -190q375 -375 375 -779q0 -152 -70.5 -277.5t-193 -197t-269.5 -71.5q-141 0 -261.5 68t-193.5 190.5t-73 271.5zM315 510 q0 -113 75.5 -188.5t180.5 -75.5q104 0 181 79t77 185q0 111 -74 189.5t-182 78.5q-106 0 -182 -75.5t-76 -192.5z" />
<glyph unicode="&#xf1;" horiz-adv-x="1091" d="M72 0v1024h278v-115q50 64 123.5 99.5t159.5 35.5q182 0 284.5 -110.5t102.5 -308.5v-625h-285v588q0 104 -47.5 160.5t-140.5 56.5q-85 0 -140 -62t-55 -184v-559h-280zM201 1128q0 126 57.5 201.5t157.5 75.5q75 0 155 -49q4 -2 14.5 -9t14 -9.5t13 -8t14 -7.5t12.5 -6 t13.5 -5t12.5 -2.5t13 -1.5q55 0 55 90h162q0 -129 -55 -203t-160 -74q-37 0 -74.5 12t-52.5 20.5t-51 29.5q-60 35 -86 35q-54 0 -54 -89h-161z" />
<glyph unicode="&#xf2;" horiz-adv-x="1142" d="M41 512q0 145 70.5 267.5t192.5 193.5t267 71t267.5 -71t193 -193.5t70.5 -267.5t-70.5 -267.5t-193 -193.5t-267.5 -71t-267 71t-192.5 193.5t-70.5 267.5zM178 1475h262l234 -349h-189zM315 512q0 -110 74 -188t182 -78q107 0 182.5 78.5t75.5 187.5t-75.5 187.5 t-182.5 78.5q-108 0 -182 -78t-74 -188z" />
<glyph unicode="&#xf3;" horiz-adv-x="1142" d="M41 512q0 145 70.5 267.5t192.5 193.5t267 71t267.5 -71t193 -193.5t70.5 -267.5t-70.5 -267.5t-193 -193.5t-267.5 -71t-267 71t-192.5 193.5t-70.5 267.5zM315 512q0 -110 74 -188t182 -78q107 0 182.5 78.5t75.5 187.5t-75.5 187.5t-182.5 78.5q-108 0 -182 -78 t-74 -188zM469 1126l233 349h263l-308 -349h-188z" />
<glyph unicode="&#xf4;" horiz-adv-x="1142" d="M41 512q0 145 70.5 267.5t192.5 193.5t267 71t267.5 -71t193 -193.5t70.5 -267.5t-70.5 -267.5t-193 -193.5t-267.5 -71t-267 71t-192.5 193.5t-70.5 267.5zM240 1126l243 349h174l244 -349h-211l-121 181l-118 -181h-211zM315 512q0 -110 74 -188t182 -78 q107 0 182.5 78.5t75.5 187.5t-75.5 187.5t-182.5 78.5q-108 0 -182 -78t-74 -188z" />
<glyph unicode="&#xf5;" horiz-adv-x="1142" d="M41 512q0 145 70.5 267.5t192.5 193.5t267 71t267.5 -71t193 -193.5t70.5 -267.5t-70.5 -267.5t-193 -193.5t-267.5 -71t-267 71t-192.5 193.5t-70.5 267.5zM233 1126q0 126 58 201.5t158 75.5q75 0 155 -49q4 -2 14.5 -9t14 -9.5t13 -8t14 -7.5t12.5 -6t13.5 -5 t12.5 -2.5t13 -1.5q55 0 55 90h162q0 -129 -55 -203t-160 -74q-37 0 -74.5 12t-52.5 20.5t-51 29.5q-59 34 -86 34q-54 0 -54 -88h-162zM315 512q0 -110 74 -188t182 -78q107 0 182.5 78.5t75.5 187.5t-75.5 187.5t-182.5 78.5q-108 0 -182 -78t-74 -188z" />
<glyph unicode="&#xf6;" horiz-adv-x="1142" d="M41 512q0 145 70.5 267.5t192.5 193.5t267 71t267.5 -71t193 -193.5t70.5 -267.5t-70.5 -267.5t-193 -193.5t-267.5 -71t-267 71t-192.5 193.5t-70.5 267.5zM240 1126v281h280v-281h-280zM315 512q0 -110 74 -188t182 -78q107 0 182.5 78.5t75.5 187.5t-75.5 187.5 t-182.5 78.5q-108 0 -182 -78t-74 -188zM623 1126v281h280v-281h-280z" />
<glyph unicode="&#xf7;" horiz-adv-x="901" d="M72 627v239h757v-239h-757zM334 307v238h237v-238h-237zM334 948v238h237v-238h-237z" />
<glyph unicode="&#xf8;" horiz-adv-x="1142" d="M12 0l144 178q-115 144 -115 334q0 145 70.5 267.5t192.5 193.5t267 71q129 0 240 -57l31 37h284l-143 -176q119 -148 119 -336q0 -145 -70.5 -267.5t-193 -193.5t-267.5 -71q-132 0 -243 57l-31 -37h-285zM311 512q0 -58 23 -115l301 373q-40 8 -64 8q-110 0 -185 -77.5 t-75 -188.5zM502 254q31 -8 69 -8q109 0 184.5 78t75.5 188q0 60 -26 117z" />
<glyph unicode="&#xf9;" horiz-adv-x="1091" d="M72 399v625h284v-588q0 -104 48 -160.5t141 -56.5q85 0 139.5 61.5t54.5 184.5v559h281v-1024h-279v113q-110 -133 -282 -133q-182 0 -284.5 110.5t-102.5 308.5zM150 1475h262l233 -349h-188z" />
<glyph unicode="&#xfa;" horiz-adv-x="1091" d="M72 399v625h284v-588q0 -104 48 -160.5t141 -56.5q85 0 139.5 61.5t54.5 184.5v559h281v-1024h-279v113q-110 -133 -282 -133q-182 0 -284.5 110.5t-102.5 308.5zM440 1126l234 349h262l-307 -349h-189z" />
<glyph unicode="&#xfb;" horiz-adv-x="1091" d="M72 399v625h284v-588q0 -104 48 -160.5t141 -56.5q85 0 139.5 61.5t54.5 184.5v559h281v-1024h-279v113q-110 -133 -282 -133q-182 0 -284.5 110.5t-102.5 308.5zM213 1126l244 349h174l243 -349h-210l-121 181l-119 -181h-211z" />
<glyph unicode="&#xfc;" horiz-adv-x="1091" d="M72 399v625h284v-588q0 -104 48 -160.5t141 -56.5q85 0 139.5 61.5t54.5 184.5v559h281v-1024h-279v113q-110 -133 -282 -133q-182 0 -284.5 110.5t-102.5 308.5zM211 1126v281h281v-281h-281zM594 1126v281h280v-281h-280z" />
<glyph unicode="&#xfd;" horiz-adv-x="1128" d="M25 1024h294l252 -631l236 631h291l-594 -1497h-281l209 518zM463 1126l233 349h262l-307 -349h-188z" />
<glyph unicode="&#xfe;" horiz-adv-x="1179" d="M72 -471v1966h280v-588q51 64 131.5 100.5t180.5 36.5q70 0 137.5 -20t130.5 -63t110.5 -104.5t76 -150t28.5 -192.5q0 -105 -29.5 -194t-78 -150.5t-111 -105t-129 -64t-131.5 -20.5q-100 0 -181.5 38.5t-134.5 104.5v-594h-280zM344 514q0 -115 74.5 -195.5 t187.5 -80.5q117 0 196 79t79 197t-79 196t-196 78q-113 0 -187.5 -79.5t-74.5 -194.5z" />
<glyph unicode="&#xff;" horiz-adv-x="1128" d="M25 1024h294l252 -631l236 631h291l-594 -1497h-281l209 518zM240 1126v281h280v-281h-280zM623 1126v281h280v-281h-280z" />
<glyph unicode="&#x152;" horiz-adv-x="2240" d="M41 748q0 209 102 385.5t278 279.5t384 103q280 0 483 -187v166h887v-272h-602v-336h602v-273h-602v-342h602v-272h-887v164q-200 -184 -483 -184q-209 0 -384.5 102.5t-277.5 279t-102 386.5zM324 748q0 -132 64 -244.5t174.5 -178t242.5 -65.5t243 65.5t175.5 178 t64.5 244.5v20q-8 194 -148.5 330.5t-334.5 136.5q-132 0 -242.5 -65.5t-174.5 -177.5t-64 -244z" />
<glyph unicode="&#x153;" horiz-adv-x="1933" d="M41 512q0 145 70.5 267.5t192.5 193.5t267 71q125 0 226 -47.5t170 -134.5q151 182 395 182q150 0 272 -71t190 -193t68 -268v-90h-792q22 -91 92.5 -144t181.5 -53q85 0 155.5 47t104.5 123l232 -94q-61 -144 -195 -232.5t-299 -88.5q-260 0 -407 178 q-150 -178 -394 -178q-145 0 -267 71t-192.5 193.5t-70.5 267.5zM311 512q0 -111 75 -188.5t185 -77.5q109 0 184.5 78t75.5 188t-75.5 188t-184.5 78q-110 0 -185 -77.5t-75 -188.5zM1118 647h486q-31 73 -93.5 112.5t-146.5 39.5t-148.5 -41t-97.5 -111z" />
<glyph unicode="&#x178;" horiz-adv-x="1288" d="M25 1495h313l305 -514l307 514h314l-480 -793v-702h-284v709zM311 1597v281h281v-281h-281zM694 1597v281h281v-281h-281z" />
<glyph unicode="&#x2c6;" horiz-adv-x="964" d="M152 1126l243 349h174l244 -349h-211l-121 181l-119 -181h-210z" />
<glyph unicode="&#x2dc;" horiz-adv-x="964" d="M129 1126q0 126 57.5 201.5t157.5 75.5q76 0 156 -49q4 -3 16 -10.5t16.5 -10.5t14 -8.5t15.5 -8t14 -6t15.5 -4.5t14.5 -1q56 0 56 90h161q0 -129 -55 -203t-160 -74q-37 0 -74.5 12t-52.5 20.5t-51 29.5q-59 34 -86 34q-53 0 -53 -88h-162z" />
<glyph unicode="&#x2000;" horiz-adv-x="973" />
<glyph unicode="&#x2001;" horiz-adv-x="1946" />
<glyph unicode="&#x2002;" horiz-adv-x="973" />
<glyph unicode="&#x2003;" horiz-adv-x="1946" />
<glyph unicode="&#x2004;" horiz-adv-x="648" />
<glyph unicode="&#x2005;" horiz-adv-x="486" />
<glyph unicode="&#x2006;" horiz-adv-x="324" />
<glyph unicode="&#x2007;" horiz-adv-x="324" />
<glyph unicode="&#x2008;" horiz-adv-x="243" />
<glyph unicode="&#x2009;" horiz-adv-x="389" />
<glyph unicode="&#x200a;" horiz-adv-x="108" />
<glyph unicode="&#x2010;" horiz-adv-x="901" d="M72 401v240h757v-240h-757z" />
<glyph unicode="&#x2011;" horiz-adv-x="901" d="M72 401v240h757v-240h-757z" />
<glyph unicode="&#x2012;" horiz-adv-x="901" d="M72 401v240h757v-240h-757z" />
<glyph unicode="&#x2013;" horiz-adv-x="962" d="M72 401v240h819v-240h-819z" />
<glyph unicode="&#x2014;" horiz-adv-x="1372" d="M72 401v240h1228v-240h-1228z" />
<glyph unicode="&#x2018;" d="M45 1495h248l69 -418h-174z" />
<glyph unicode="&#x2019;" d="M55 1077l70 418h248l-144 -418h-174z" />
<glyph unicode="&#x201a;" d="M43 -240l70 418h247l-143 -418h-174z" />
<glyph unicode="&#x201c;" horiz-adv-x="757" d="M53 1495h248l70 -418h-174zM387 1495h248l70 -418h-175z" />
<glyph unicode="&#x201d;" horiz-adv-x="757" d="M55 1077l70 418h248l-144 -418h-174zM389 1077l70 418h248l-144 -418h-174z" />
<glyph unicode="&#x201e;" horiz-adv-x="757" d="M43 -240l70 418h247l-143 -418h-174zM377 -240l69 418h248l-143 -418h-174z" />
<glyph unicode="&#x2022;" horiz-adv-x="815" d="M176 522q0 95 68.5 163.5t163.5 68.5t163 -68.5t68 -163.5t-68 -163t-163 -68t-163.5 68t-68.5 163z" />
<glyph unicode="&#x2026;" horiz-adv-x="1189" d="M72 0v281h280v-281h-280zM455 0v281h280v-281h-280zM838 0v281h280v-281h-280z" />
<glyph unicode="&#x202f;" horiz-adv-x="389" />
<glyph unicode="&#x2039;" horiz-adv-x="561" d="M106 436v174l349 244v-211l-181 -121l181 -119v-210z" />
<glyph unicode="&#x203a;" horiz-adv-x="561" d="M106 195v211l181 118l-181 121v211l349 -244v-174z" />
<glyph unicode="&#x205f;" horiz-adv-x="486" />
<glyph unicode="&#x20ac;" horiz-adv-x="1204" d="M63 434v223h187v181h-187v223h189q15 198 156 326.5t352 128.5q236 0 383 -160l-215 -193q-65 72 -168 72q-91 0 -148 -48t-73 -126h456l-39 -223h-421v-181h395l-35 -223h-358q12 -78 68.5 -125t148.5 -47q102 0 170 94l256 -168q-135 -208 -424 -208q-232 0 -363.5 123 t-142.5 331h-187z" />
<glyph unicode="&#x2122;" horiz-adv-x="1327" d="M51 1309v186h490v-186h-144v-408h-198v408h-148zM602 901v594h191l139 -182l149 182h174v-594h-200v283l-127 -142l-125 142v-283h-201z" />
<glyph unicode="&#x25fc;" horiz-adv-x="1024" d="M0 0v1024h1024v-1024h-1024z" />
<glyph unicode="&#xfb01;" horiz-adv-x="1153" d="M51 772v252h174v27q0 251 97.5 347.5t353.5 96.5h22v-262q-46 0 -74.5 -2t-51.5 -10.5t-34.5 -19.5t-19.5 -33.5t-10 -49t-2 -69.5v-25h192v-252h-192v-772h-281v772h-174zM801 0v1024h280v-1024h-280zM801 1126v281h280v-281h-280z" />
<glyph unicode="&#xfb02;" horiz-adv-x="1153" d="M51 772v252h174v27q0 251 97.5 347.5t353.5 96.5h22v-262q-46 0 -74.5 -2t-51.5 -10.5t-34.5 -19.5t-19.5 -33.5t-10 -49t-2 -69.5v-25h192v-252h-192v-772h-281v772h-174zM801 0v1495h280v-1495h-280z" />
</font>
</defs>
</svg>
